<svg id="Layer_1" data-name="Layer 1" xmlns="http://www.w3.org/2000/svg" viewBox="0 0 783.95 839.08"><path d="M391.91,133C252.2,133,138.53,246.62,138.53,386.33A253.61,253.61,0,0,0,247.17,594.26a20.77,20.77,0,0,0,23.75-34.08,212.05,212.05,0,0,1-90.86-173.85c0-116.81,95-211.84,211.85-211.84s211.85,95,211.85,211.84A212,212,0,0,1,513,560.12a20.77,20.77,0,0,0,23.76,34.08A253.56,253.56,0,0,0,645.3,386.33C645.3,246.62,531.63,133,391.91,133Z" style="fill:#fff"/><path d="M562.27,386.32a70.61,70.61,0,0,0-137.19-23.53A20.77,20.77,0,0,0,464,377.31c.09-.25.18-.49.26-.74a28.86,28.86,0,1,1,27.42,38.8H292.29a29.11,29.11,0,1,1,20.59-49.53,28.46,28.46,0,0,1,6.77,10.75,20.77,20.77,0,0,0,39.17-13.83,70.61,70.61,0,1,0-66.53,94.15H491.68a70.62,70.62,0,0,0,70.59-70.59Z" style="fill:#fff"/><path d="M392,481.82a20.77,20.77,0,0,0-20.77,20.77V818.32a20.77,20.77,0,1,0,41.54,0V502.59A20.77,20.77,0,0,0,392,481.82Z" style="fill:#fff"/><path d="M8,223.82,47.21,563.9A83.06,83.06,0,0,0,89.5,627.07l7.26,4L43.28,167.18A53.6,53.6,0,0,0,8,223.82Z" style="fill:#fff"/><path d="M740.71,167.18h0L687.22,631.09l7.26-4a83.1,83.1,0,0,0,42.3-63.17L776,223.82A53.59,53.59,0,0,0,740.71,167.18Z" style="fill:#fff"/><path d="M481.33,30.59a82.65,82.65,0,0,0-54.77-.11h-.05L392,42.82,43.26,167.18A53.56,53.56,0,0,0,8,223.81L3.12,181.48l-3-25.94a20.71,20.71,0,0,1,13.61-21.91l24.62-8.83L302.2,30.69l.48-.16,27.43-9.78L385,1.24a20.25,20.25,0,0,1,13.94,0l54.87,19.51Z" style="fill:#fff"/><path d="M510.73,776.3l-31.58,17.49-10.69,5.9a20.76,20.76,0,0,1-30.84-18.13v-279a20.77,20.77,0,0,1,41.53,0V757.69a21.26,21.26,0,0,0,31.58,18.61Z" style="fill:#fff"/><path d="M346.22,502.58V781.51a20.76,20.76,0,0,1-30.84,18.13l-10.68-5.9-31.58-17.5a21.26,21.26,0,0,0,31.58-18.61v-255a20.76,20.76,0,0,1,41.52,0Z" style="fill:#fff"/><path d="M783.81,155.54l-3,25.94-4.9,42.33a47.21,47.21,0,0,0,.38-6.17,53.58,53.58,0,0,0-35.63-50.46L392,42.82l33.92-12.13a83.2,83.2,0,0,1,55.83,0L745.58,124.8l24.62,8.78A20.72,20.72,0,0,1,783.81,155.54Z" style="fill:#fff"/><path d="M736.76,563.88l-4.89,42.48-4.63,40.15a20.54,20.54,0,0,1-10.53,15.68l-35.36,19.62L510.73,776.3a21.27,21.27,0,0,1-31.58-18.61V746.25L687.2,631.09l7.29-4A83.06,83.06,0,0,0,736.76,563.88Z" style="fill:#fff"/><path d="M304.7,746.25v11.38a21.26,21.26,0,0,1-31.58,18.61L102.6,681.81,67.29,662.25a20.86,20.86,0,0,1-10.58-15.8l-4.62-40.09L47.2,563.88a83,83,0,0,0,42.32,63.17l7.23,4Z" style="fill:#fff"/></svg>